<mxfile host="app.diagrams.net" modified="2021-11-10T02:16:41.794Z" agent="5.0 (Windows NT 10.0; Win64; x64) AppleWebKit/537.36 (KHTML, like Gecko) Chrome/95.0.4638.69 Safari/537.36 Edg/95.0.1020.44" etag="q6rEas0poZhTM3H4QiWX" version="15.7.1" type="github">
  <diagram id="za1I787rWH-icT1i34yM" name="Page-1">
    <mxGraphModel dx="1162" dy="610" grid="1" gridSize="10" guides="1" tooltips="1" connect="1" arrows="1" fold="1" page="1" pageScale="1" pageWidth="850" pageHeight="1100" math="0" shadow="0">
      <root>
        <mxCell id="0" />
        <mxCell id="1" parent="0" />
        <mxCell id="z1ZG2A4nI0vAmzi11pOK-1" value="&lt;font style=&quot;font-size: 14px&quot;&gt;hashFuction&lt;br&gt;hf(key, value)&lt;/font&gt;" style="rounded=1;whiteSpace=wrap;html=1;" vertex="1" parent="1">
          <mxGeometry x="243" y="160" width="120" height="60" as="geometry" />
        </mxCell>
        <mxCell id="z1ZG2A4nI0vAmzi11pOK-2" value="Key/Unique ID" style="rounded=1;whiteSpace=wrap;html=1;fontSize=14;" vertex="1" parent="1">
          <mxGeometry x="60" y="160" width="100" height="60" as="geometry" />
        </mxCell>
        <mxCell id="z1ZG2A4nI0vAmzi11pOK-4" value="" style="edgeStyle=segmentEdgeStyle;endArrow=classic;html=1;rounded=0;fontSize=14;entryX=0;entryY=0.5;entryDx=0;entryDy=0;exitX=1;exitY=0.5;exitDx=0;exitDy=0;" edge="1" parent="1" source="z1ZG2A4nI0vAmzi11pOK-2" target="z1ZG2A4nI0vAmzi11pOK-1">
          <mxGeometry width="50" height="50" relative="1" as="geometry">
            <mxPoint x="150" y="190" as="sourcePoint" />
            <mxPoint x="200" y="140" as="targetPoint" />
          </mxGeometry>
        </mxCell>
        <mxCell id="z1ZG2A4nI0vAmzi11pOK-5" value="&lt;font style=&quot;font-size: 12px&quot;&gt;Sample Hash Functions:&lt;br style=&quot;font-size: 12px&quot;&gt;&lt;div style=&quot;text-align: left ; font-size: 12px&quot;&gt;&lt;span style=&quot;font-size: 12px&quot;&gt;1. hf(len(key)%5)&lt;/span&gt;&lt;/div&gt;&lt;div style=&quot;text-align: left ; font-size: 12px&quot;&gt;&lt;span style=&quot;font-size: 12px&quot;&gt;2. hf(ascii(key)%5)&lt;/span&gt;&lt;/div&gt;&lt;div style=&quot;text-align: left ; font-size: 12px&quot;&gt;&lt;span style=&quot;font-size: 12px&quot;&gt;3. hf(ascii(key*13)%5)&lt;/span&gt;&lt;/div&gt;&lt;div style=&quot;text-align: left ; font-size: 12px&quot;&gt;&lt;span style=&quot;font-size: 12px&quot;&gt;.&lt;/span&gt;&lt;/div&gt;&lt;div style=&quot;text-align: left ; font-size: 12px&quot;&gt;&lt;span style=&quot;font-size: 12px&quot;&gt;.&lt;/span&gt;&lt;/div&gt;&lt;/font&gt;" style="rounded=1;whiteSpace=wrap;html=1;fontSize=12;horizontal=1;labelPosition=center;verticalLabelPosition=middle;align=center;verticalAlign=middle;textDirection=ltr;" vertex="1" parent="1">
          <mxGeometry x="233" y="260" width="140" height="140" as="geometry" />
        </mxCell>
        <mxCell id="z1ZG2A4nI0vAmzi11pOK-6" value="" style="edgeStyle=segmentEdgeStyle;endArrow=classic;html=1;rounded=0;fontSize=14;entryX=0.5;entryY=0;entryDx=0;entryDy=0;exitX=0.5;exitY=1;exitDx=0;exitDy=0;" edge="1" parent="1">
          <mxGeometry width="50" height="50" relative="1" as="geometry">
            <mxPoint x="299" y="220" as="sourcePoint" />
            <mxPoint x="303" y="260" as="targetPoint" />
          </mxGeometry>
        </mxCell>
        <mxCell id="z1ZG2A4nI0vAmzi11pOK-7" value="" style="ellipse;whiteSpace=wrap;html=1;aspect=fixed;fontSize=12;align=left;" vertex="1" parent="1">
          <mxGeometry x="460" y="88" width="200" height="200" as="geometry" />
        </mxCell>
        <mxCell id="z1ZG2A4nI0vAmzi11pOK-8" value="" style="ellipse;whiteSpace=wrap;html=1;aspect=fixed;fontSize=12;align=left;" vertex="1" parent="1">
          <mxGeometry x="496" y="123" width="129" height="129" as="geometry" />
        </mxCell>
        <mxCell id="z1ZG2A4nI0vAmzi11pOK-45" value="hf(len(key)%5)" style="shape=table;startSize=30;container=1;collapsible=1;childLayout=tableLayout;fixedRows=1;rowLines=0;fontStyle=1;align=center;resizeLast=1;labelBorderColor=none;fontSize=12;" vertex="1" parent="1">
          <mxGeometry x="470" y="340" width="180" height="190" as="geometry" />
        </mxCell>
        <mxCell id="z1ZG2A4nI0vAmzi11pOK-46" value="" style="shape=partialRectangle;collapsible=0;dropTarget=0;pointerEvents=0;fillColor=none;top=0;left=0;bottom=1;right=0;points=[[0,0.5],[1,0.5]];portConstraint=eastwest;labelBorderColor=none;fontSize=12;align=left;" vertex="1" parent="z1ZG2A4nI0vAmzi11pOK-45">
          <mxGeometry y="30" width="180" height="30" as="geometry" />
        </mxCell>
        <mxCell id="z1ZG2A4nI0vAmzi11pOK-47" value="Key Value" style="shape=partialRectangle;connectable=0;fillColor=none;top=0;left=0;bottom=0;right=0;fontStyle=1;overflow=hidden;labelBorderColor=none;fontSize=12;align=left;" vertex="1" parent="z1ZG2A4nI0vAmzi11pOK-46">
          <mxGeometry width="59.5" height="30" as="geometry">
            <mxRectangle width="59.5" height="30" as="alternateBounds" />
          </mxGeometry>
        </mxCell>
        <mxCell id="z1ZG2A4nI0vAmzi11pOK-48" value="hf Vs value" style="shape=partialRectangle;connectable=0;fillColor=none;top=0;left=0;bottom=0;right=0;align=left;spacingLeft=6;fontStyle=1;overflow=hidden;labelBorderColor=none;fontSize=12;" vertex="1" parent="z1ZG2A4nI0vAmzi11pOK-46">
          <mxGeometry x="59.5" width="120.5" height="30" as="geometry">
            <mxRectangle width="120.5" height="30" as="alternateBounds" />
          </mxGeometry>
        </mxCell>
        <mxCell id="z1ZG2A4nI0vAmzi11pOK-49" value="" style="shape=partialRectangle;collapsible=0;dropTarget=0;pointerEvents=0;fillColor=none;top=0;left=0;bottom=0;right=0;points=[[0,0.5],[1,0.5]];portConstraint=eastwest;labelBorderColor=none;fontSize=12;align=left;" vertex="1" parent="z1ZG2A4nI0vAmzi11pOK-45">
          <mxGeometry y="60" width="180" height="30" as="geometry" />
        </mxCell>
        <mxCell id="z1ZG2A4nI0vAmzi11pOK-50" value="1005" style="shape=partialRectangle;connectable=0;fillColor=none;top=0;left=0;bottom=0;right=0;editable=1;overflow=hidden;labelBorderColor=none;fontSize=12;align=left;" vertex="1" parent="z1ZG2A4nI0vAmzi11pOK-49">
          <mxGeometry width="59.5" height="30" as="geometry">
            <mxRectangle width="59.5" height="30" as="alternateBounds" />
          </mxGeometry>
        </mxCell>
        <mxCell id="z1ZG2A4nI0vAmzi11pOK-51" value="4" style="shape=partialRectangle;connectable=0;fillColor=none;top=0;left=0;bottom=0;right=0;align=left;spacingLeft=6;overflow=hidden;labelBorderColor=none;fontSize=12;" vertex="1" parent="z1ZG2A4nI0vAmzi11pOK-49">
          <mxGeometry x="59.5" width="120.5" height="30" as="geometry">
            <mxRectangle width="120.5" height="30" as="alternateBounds" />
          </mxGeometry>
        </mxCell>
        <mxCell id="z1ZG2A4nI0vAmzi11pOK-52" value="" style="shape=partialRectangle;collapsible=0;dropTarget=0;pointerEvents=0;fillColor=none;top=0;left=0;bottom=0;right=0;points=[[0,0.5],[1,0.5]];portConstraint=eastwest;labelBorderColor=none;fontSize=12;align=left;" vertex="1" parent="z1ZG2A4nI0vAmzi11pOK-45">
          <mxGeometry y="90" width="180" height="30" as="geometry" />
        </mxCell>
        <mxCell id="z1ZG2A4nI0vAmzi11pOK-53" value="1" style="shape=partialRectangle;connectable=0;fillColor=none;top=0;left=0;bottom=0;right=0;editable=1;overflow=hidden;labelBorderColor=none;fontSize=12;align=left;" vertex="1" parent="z1ZG2A4nI0vAmzi11pOK-52">
          <mxGeometry width="59.5" height="30" as="geometry">
            <mxRectangle width="59.5" height="30" as="alternateBounds" />
          </mxGeometry>
        </mxCell>
        <mxCell id="z1ZG2A4nI0vAmzi11pOK-54" value="1" style="shape=partialRectangle;connectable=0;fillColor=none;top=0;left=0;bottom=0;right=0;align=left;spacingLeft=6;overflow=hidden;labelBorderColor=none;fontSize=12;" vertex="1" parent="z1ZG2A4nI0vAmzi11pOK-52">
          <mxGeometry x="59.5" width="120.5" height="30" as="geometry">
            <mxRectangle width="120.5" height="30" as="alternateBounds" />
          </mxGeometry>
        </mxCell>
        <mxCell id="z1ZG2A4nI0vAmzi11pOK-55" value="" style="shape=partialRectangle;collapsible=0;dropTarget=0;pointerEvents=0;fillColor=none;top=0;left=0;bottom=0;right=0;points=[[0,0.5],[1,0.5]];portConstraint=eastwest;labelBorderColor=none;fontSize=12;align=left;" vertex="1" parent="z1ZG2A4nI0vAmzi11pOK-45">
          <mxGeometry y="120" width="180" height="30" as="geometry" />
        </mxCell>
        <mxCell id="z1ZG2A4nI0vAmzi11pOK-56" value="10006" style="shape=partialRectangle;connectable=0;fillColor=none;top=0;left=0;bottom=0;right=0;editable=1;overflow=hidden;labelBorderColor=none;fontSize=12;align=left;" vertex="1" parent="z1ZG2A4nI0vAmzi11pOK-55">
          <mxGeometry width="59.5" height="30" as="geometry">
            <mxRectangle width="59.5" height="30" as="alternateBounds" />
          </mxGeometry>
        </mxCell>
        <mxCell id="z1ZG2A4nI0vAmzi11pOK-57" value="1" style="shape=partialRectangle;connectable=0;fillColor=none;top=0;left=0;bottom=0;right=0;align=left;spacingLeft=6;overflow=hidden;labelBorderColor=none;fontSize=12;" vertex="1" parent="z1ZG2A4nI0vAmzi11pOK-55">
          <mxGeometry x="59.5" width="120.5" height="30" as="geometry">
            <mxRectangle width="120.5" height="30" as="alternateBounds" />
          </mxGeometry>
        </mxCell>
        <mxCell id="z1ZG2A4nI0vAmzi11pOK-58" value="" style="shape=partialRectangle;collapsible=0;dropTarget=0;pointerEvents=0;fillColor=none;top=0;left=0;bottom=0;right=0;points=[[0,0.5],[1,0.5]];portConstraint=eastwest;labelBorderColor=none;fontSize=12;align=left;" vertex="1" parent="z1ZG2A4nI0vAmzi11pOK-45">
          <mxGeometry y="150" width="180" height="30" as="geometry" />
        </mxCell>
        <mxCell id="z1ZG2A4nI0vAmzi11pOK-59" value="100" style="shape=partialRectangle;connectable=0;fillColor=none;top=0;left=0;bottom=0;right=0;editable=1;overflow=hidden;labelBorderColor=none;fontSize=12;align=left;" vertex="1" parent="z1ZG2A4nI0vAmzi11pOK-58">
          <mxGeometry width="59.5" height="30" as="geometry">
            <mxRectangle width="59.5" height="30" as="alternateBounds" />
          </mxGeometry>
        </mxCell>
        <mxCell id="z1ZG2A4nI0vAmzi11pOK-60" value="3" style="shape=partialRectangle;connectable=0;fillColor=none;top=0;left=0;bottom=0;right=0;align=left;spacingLeft=6;overflow=hidden;labelBorderColor=none;fontSize=12;" vertex="1" parent="z1ZG2A4nI0vAmzi11pOK-58">
          <mxGeometry x="59.5" width="120.5" height="30" as="geometry">
            <mxRectangle width="120.5" height="30" as="alternateBounds" />
          </mxGeometry>
        </mxCell>
      </root>
    </mxGraphModel>
  </diagram>
</mxfile>
